<svg xmlns="http://www.w3.org/2000/svg" width="100" height="116" viewBox="0 0 100 116">
    <g fill="none" fill-rule="evenodd">
        <path stroke="#EDF3EA" stroke-width="4" d="M50 114c26.513 0 48-21.313 48-47.596 0-13.595-2.637-19.775-12.05-28.527-4.425-4.115-9.392-4.25-22.647-1.983-1.568.268-2.42.41-3.379.563-3.999.636-7.02.95-9.924.95-3.004 0-6.116-.377-10.332-1.149-.883-.161-1.674-.313-3.108-.591-12.542-2.438-17.253-2.432-21.493 1.29C4.98 45.816 2 52.424 2 66.405 2 92.687 23.487 114 50 114z"/>
        <path fill="#CE8400" stroke="#EDF3EA" d="M24.42 10.868a1.996 1.996 0 0 1-.002-2.824l2.105-2.1a2.005 2.005 0 0 1 2.83.004l27.59 27.548c.782.78.782 2.047.003 2.824l-2.105 2.1a2.005 2.005 0 0 1-2.83-.004l-27.59-27.548z"/>
        <path fill="#EDF3EA" d="M54.02 31.293s15.764 1.91 24.307-6.617C86.87 16.15 85.1 2.4 85.1 2.4 85.02 1.304 84.06.335 82.968.272c0 0-13.776-1.766-22.319 6.76-8.542 8.527-6.629 24.26-6.629 24.26z"/>
    </g>
</svg>
