<svg xmlns="http://www.w3.org/2000/svg" xmlns:xlink="http://www.w3.org/1999/xlink" width="24" height="24" viewBox="0 0 24 24">
    <defs>
        <path id="a" d="M17.75 7.002L14 3.252l-9.85 9.85c-.1.1-.15.22-.15.36V16.5c0 .28.22.5.5.5h3.04c.13 0 .26-.05.35-.15L17.75 7zm2.96-2.96a.996.996 0 0 0 0-1.41L18.37.292a.996.996 0 0 0-1.41 0L15 2.252l3.75 3.75 1.96-1.96zM2 20h20c1.1 0 2 .9 2 2s-.9 2-2 2H2c-1.1 0-2-.9-2-2s.9-2 2-2z"/>
    </defs>
    <g fill="none" fill-rule="evenodd">
        <mask id="b" fill="#fff">
            <use xlink:href="#a"/>
        </mask>
        <g fill="#000" mask="url(#b)">
            <path d="M0 0h24v24H0z"/>
        </g>
    </g>
</svg>
