<svg xmlns="http://www.w3.org/2000/svg" width="443" height="600" viewBox="0 0 443 600">
    <defs>
        <filter id="a" width="111%" height="112.1%" x="-5.5%" y="-6.2%" filterUnits="objectBoundingBox">
            <feOffset dy="4" in="SourceAlpha" result="shadowOffsetOuter1"/>
            <feGaussianBlur in="shadowOffsetOuter1" result="shadowBlurOuter1" stdDeviation="9.5"/>
            <feColorMatrix in="shadowBlurOuter1" result="shadowMatrixOuter1" values="0 0 0 0 0 0 0 0 0 0 0 0 0 0 0 0 0 0 0.5 0"/>
            <feMerge>
                <feMergeNode in="shadowMatrixOuter1"/>
                <feMergeNode in="SourceGraphic"/>
            </feMerge>
        </filter>
    </defs>
    <g fill="none" fill-rule="evenodd" filter="url(#a)" transform="translate(20 -28)">
        <path fill="#478529" d="M175.895 557.462h479.21V335.5a1.5 1.5 0 0 1 1.5-1.5h44.921a1.5 1.5 0 0 1 1.5 1.5v221.962H717a2 2 0 0 1 2 2V747a2 2 0 0 1-2 2H114a2 2 0 0 1-2-2V559.462a2 2 0 0 1 2-2h13.974V335.5a1.5 1.5 0 0 1 1.5-1.5h44.92a1.5 1.5 0 0 1 1.5 1.5v221.962z"/>
        <path fill="#FFF" stroke="#D0D1D0" stroke-width="3" d="M792.52 213.855c31.436 13.323 53.48 44.396 53.48 80.603C846 342.806 806.694 382 758.208 382c-29.693 0-55.942-14.698-71.83-37.196C670.488 367.302 644.238 382 614.547 382c-29.693 0-55.943-14.698-71.831-37.196C526.829 367.302 500.579 382 470.887 382c-29.693 0-55.942-14.698-71.83-37.196C383.168 367.302 356.919 382 327.227 382c-29.693 0-55.942-14.698-71.83-37.196C239.506 367.302 213.257 382 183.565 382c-23.151 0-44.21-8.936-59.895-23.537-10.954 4.897-23.097 7.62-35.879 7.62C39.306 366.083 0 326.89 0 278.542c0-40.323 27.34-74.278 64.543-84.44a88.147 88.147 0 0 1-.694-11.06c0-48.348 39.306-87.542 87.793-87.542 2.8 0 5.57.13 8.304.387 3.85-44.803 41.54-79.97 87.47-79.97 17.666 0 34.114 5.203 47.886 14.157 13.772-8.954 30.22-14.157 47.887-14.157 17.02 0 32.91 4.83 46.364 13.19C405.627 11.24 428.96 0 454.925 0c17.666 0 34.114 5.203 47.886 14.157C516.583 5.203 533.031 0 550.698 0c20.888 0 40.072 7.274 55.144 19.42a88.059 88.059 0 0 1 24.667-3.503c45.909 0 83.587 35.136 87.464 79.91 44.903 3.867 80.14 41.438 80.14 87.215 0 10.844-1.977 21.229-5.593 30.813z"/>
    </g>
</svg>
