<svg xmlns="http://www.w3.org/2000/svg" width="1440" height="260" viewBox="0 0 1440 260" preserveAspectRatio="none" > 
    <g fill="#F4F4F4" fill-rule="evenodd">
        <path d="M-13.9 176.164C-37.091 158.136-52 130.05-52 98.5-52 44.1-7.676 0 47 0c28.757 0 54.65 12.2 72.737 31.68C136.632 21.11 156.602 15 178 15c36.112 0 68.16 17.402 88.215 44.277C278.391 53.954 291.85 51 306 51c54.676 0 99 44.1 99 98.5 0 27.33-11.187 52.06-29.253 69.904.168 2.344.253 4.71.253 7.096 0 54.4-44.324 98.5-99 98.5-41.647 0-77.287-25.586-91.908-61.82C173.655 311.795 129.825 348 77.5 348 16.473 348-33 298.751-33 238c0-22.927 7.046-44.215 19.1-61.836z"/>
        <path d="M371.1 190.164C347.909 172.136 333 144.05 333 112.5c0-54.4 44.324-98.5 99-98.5 29.455 0 55.905 12.798 74.04 33.11C525.053 31.423 549.426 22 576 22c26.104 0 50.084 9.093 68.947 24.284C658.703 39.078 674.373 35 691 35c54.676 0 99 44.1 99 98.5 0 29.863-13.357 56.622-34.45 74.686C759.08 218.308 761 229.18 761 240.5c0 54.4-44.324 98.5-99 98.5-41.647 0-77.287-25.586-91.908-61.82C558.655 325.795 514.825 362 462.5 362 401.473 362 352 312.751 352 252c0-22.927 7.046-44.215 19.1-61.836z"/>
        <path d="M730.1 176.164C706.909 158.136 692 130.05 692 98.5 692 44.1 736.324 0 791 0c28.757 0 54.65 12.2 72.737 31.68C880.632 21.11 900.602 15 922 15c36.112 0 68.16 17.402 88.215 44.277C1022.391 53.954 1035.85 51 1050 51c54.676 0 99 44.1 99 98.5 0 27.33-11.187 52.06-29.253 69.904.168 2.344.253 4.71.253 7.096 0 54.4-44.324 98.5-99 98.5-41.647 0-77.287-25.586-91.908-61.82C917.655 311.795 873.825 348 821.5 348 760.473 348 711 298.751 711 238c0-22.927 7.046-44.215 19.1-61.836z"/>
        <path d="M1120.1 202.164c-23.191-18.028-38.1-46.114-38.1-77.664 0-54.4 44.324-98.5 99-98.5 28.757 0 54.65 12.2 72.737 31.68C1270.632 47.11 1290.602 41 1312 41c36.112 0 68.16 17.402 88.215 44.277C1412.391 79.954 1425.85 77 1440 77c54.676 0 99 44.1 99 98.5 0 27.33-11.187 52.06-29.253 69.904.168 2.344.253 4.71.253 7.096 0 54.4-44.324 98.5-99 98.5-41.647 0-77.287-25.586-91.908-61.82-11.437 48.616-55.267 84.82-107.592 84.82-61.027 0-110.5-49.249-110.5-110 0-22.927 7.046-44.215 19.1-61.836z"/>
    </g>
</svg>
