<svg xmlns="http://www.w3.org/2000/svg" xmlns:xlink="http://www.w3.org/1999/xlink" width="1440" height="120" viewBox="0 0 1440 120" preserveAspectRatio="none"> 
    <defs>
        <path id="a" d="M0 0h1440v110H0z"/>
        <path id="d" d="M314.212-98.102c16.438-8.395 35.51-13.198 55.85-13.198 27.02 0 51.805 8.476 71.146 22.589C460.488-102.644 485.112-111 511.94-111c20.765 0 40.208 5.006 56.877 13.728C589.303-117.369 618.956-130 651.94-130c31.156 0 59.338 11.269 79.632 29.454C747.67-108.48 766.209-113 785.94-113c30.888 0 58.854 11.076 79.108 28.988C884.044-97.162 907.958-105 933.94-105c21.586 0 41.745 5.41 58.841 14.78 20.532-21.285 51.066-34.78 85.16-34.78 32.092 0 61.03 11.958 81.442 31.115 15.43-7.102 32.964-11.115 51.557-11.115 26.72 0 51.254 8.29 70.5 22.121 19.246-13.832 43.78-22.121 70.5-22.121 61.823 0 111.94 44.373 111.94 99.11s-50.117 99.11-111.94 99.11c-26.72 0-51.254-8.29-70.5-22.121-19.246 13.832-43.78 22.121-70.5 22.121-32.093 0-61.031-11.958-81.442-31.115-15.43 7.102-32.965 11.115-51.558 11.115-21.585 0-41.744-5.41-58.84-14.78-20.532 21.285-51.066 34.78-85.16 34.78-30.888 0-58.854-11.076-79.107-28.988-18.996 13.15-42.91 20.988-68.893 20.988-31.155 0-59.338-11.269-79.631-29.454C690.21 63.7 671.672 68.22 651.94 68.22c-20.764 0-40.208-5.006-56.876-13.728-20.487 20.097-50.14 32.728-83.124 32.728-27.02 0-51.804-8.476-71.145-22.589-19.28 13.933-43.904 22.289-70.733 22.289-25.686 0-49.351-7.66-68.241-20.54-20.97 14.48-47.308 23.1-75.909 23.1-30.68 0-58.755-9.92-80.395-26.35-18.78 12.608-42.191 20.09-67.577 20.09C16.117 83.22-34 38.847-34-15.89S16.117-115 77.94-115c22.42 0 43.3 5.836 60.81 15.885C161.135-118.827 191.925-131 225.911-131c34.565 0 65.824 12.59 88.3 32.898z"/>
        <filter id="c" width="103.5%" height="123.2%" x="-1.7%" y="-9.8%" filterUnits="objectBoundingBox">
            <feOffset dy="4" in="SourceAlpha" result="shadowOffsetOuter1"/>
            <feGaussianBlur in="shadowOffsetOuter1" result="shadowBlurOuter1" stdDeviation="8"/>
            <feColorMatrix in="shadowBlurOuter1" values="0 0 0 0 0.737149004 0 0 0 0 0.737149004 0 0 0 0 0.737149004 0 0 0 0.5 0"/>
        </filter>
    </defs>
    <g fill="none" fill-rule="evenodd">
        <mask id="b" fill="#fff">
            <use xlink:href="#a"/>
        </mask>
        <g mask="url(#b)">
            <use fill="#000" filter="url(#c)" xlink:href="#d"/>
            <use fill="#fff" xlink:href="#d"/>
        </g>
    </g>
</svg>
