<svg xmlns="http://www.w3.org/2000/svg" width="362" height="253" viewBox="18 0 362 253" preserveAspectRatio="none">
    <path fill="#F4F4F4" fill-rule="evenodd" d="M-1.381 180.158C-27.699 162.454-45 132.488-45 98.5-45 44.1-.676 0 54 0c28.757 0 54.65 12.2 72.737 31.68C143.632 21.11 163.602 15 185 15c34.432 0 65.17 15.82 85.34 40.589C283.258 49.442 297.725 46 313 46c54.676 0 99 44.1 99 98.5 0 36.272-19.706 67.966-49.047 85.06C361.328 282.544 317.647 325 264 325c-39.105 0-72.914-22.558-89-55.31C158.914 302.443 125.105 325 86 325c-54.676 0-99-44.1-99-98.5 0-16.753 4.204-32.53 11.619-46.342z"/>
</svg>
