<svg xmlns="http://www.w3.org/2000/svg" width="196" height="172" viewBox="0 0 196 172">
    <g fill="none" fill-rule="evenodd">
        <path fill="#478529" d="M41.526 128.615h108.948V79.5a1.5 1.5 0 0 1 1.5-1.5h7.894a1.5 1.5 0 0 1 1.5 1.5v49.115H163a2 2 0 0 1 2 2V170a2 2 0 0 1-2 2H29a2 2 0 0 1-2-2v-39.385a2 2 0 0 1 2-2h1.632V79.5a1.5 1.5 0 0 1 1.5-1.5h7.894a1.5 1.5 0 0 1 1.5 1.5v49.115z"/>
        <path fill="#FFF" stroke="#D0D1D0" stroke-width="3" d="M181.863 50.705C188.997 53.74 194 60.816 194 69.063 194 80.073 185.08 89 174.075 89c-6.738 0-12.696-3.348-16.301-8.471C154.168 85.652 148.21 89 141.472 89c-6.739 0-12.696-3.348-16.302-8.471-3.606 5.123-9.563 8.471-16.302 8.471-6.739 0-12.696-3.348-16.302-8.471C88.96 85.652 83.003 89 76.264 89c-6.739 0-12.696-3.348-16.302-8.471C56.356 85.652 50.4 89 43.66 89a19.848 19.848 0 0 1-13.593-5.36 19.843 19.843 0 0 1-8.142 1.735C10.92 85.375 2 76.449 2 65.437c0-9.183 6.205-16.916 14.648-19.23a20.145 20.145 0 0 1-.157-2.52c0-11.01 8.92-19.937 19.924-19.937.636 0 1.264.03 1.885.088.874-10.204 9.428-18.213 19.85-18.213 4.01 0 7.743 1.185 10.869 3.224a19.822 19.822 0 0 1 10.868-3.224c3.863 0 7.469 1.1 10.522 3.004A19.869 19.869 0 0 1 105.245 2c4.01 0 7.743 1.185 10.868 3.224A19.822 19.822 0 0 1 126.981 2c4.74 0 9.094 1.657 12.515 4.423a19.92 19.92 0 0 1 5.598-.798c10.42 0 18.97 8.002 19.85 18.2 10.191.88 18.188 9.437 18.188 19.863 0 2.47-.449 4.834-1.27 7.017z"/>
    </g>
</svg>
