<svg xmlns="http://www.w3.org/2000/svg" width="164" height="119" viewBox="0 0 164 119">
    <g fill="none" fill-rule="evenodd">
        <circle cx="71" cy="56" r="56" fill="#CE8400" fill-rule="nonzero"/>
        <ellipse cx="22" cy="115.5" fill="#F2F2F2" fill-rule="nonzero" rx="22" ry="3.5"/>
        <ellipse cx="129.5" cy="110.5" fill="#F2F2F2" fill-rule="nonzero" rx="34.5" ry="5.5"/>
        <path fill="#C6BA1F" fill-rule="nonzero" d="M122.813 58s.29.966-1.358 1.836c-1.65.87-2.134 4.154-.194 5.12 1.94.966 2.522 2.222 1.552 3.092-.97.87-2.716 3.188-.388 3.767 2.328.58 2.619 1.74 1.94 2.222-.68.484 1.551-.869 1.551-.869s.388 2.319 2.425 1.739c2.037-.58 7.76-11.593 4.85-13.14-2.91-1.545-10.378-3.767-10.378-3.767z"/>
        <path fill="#FFB9B9" fill-rule="nonzero" d="M125.75 67.433s1 3.62-.75 3.878a6.712 6.712 0 0 0-3 1.293L125.25 77h6l3.75-3.879s-5-3.878-4-6.206c1-2.327-5.25.518-5.25.518z"/>
        <path fill="#000" fill-rule="nonzero" d="M125.75 67.433s1 3.62-.75 3.878a6.712 6.712 0 0 0-3 1.293L125.25 77h6l3.75-3.879s-5-3.878-4-6.206c1-2.327-5.25.518-5.25.518z" opacity=".1"/>
        <path fill="#FFB9B9" fill-rule="nonzero" d="M127 110.727l5.898 2.02L137 113l-.256-3.535-8.462-2.465z"/>
        <path fill="#2B2A3A" fill-rule="nonzero" d="M135 109.868s0 3.022.513 3.022c.512 0 7.433-.647 9.483 0 2.05.648 5.126-1.727 3.588-3.022-1.537-1.295-4.046-3.238-5.611-2.807-1.565.432-7.973 1.512-7.973 1.512v1.295zM115.868 107s-3.32 5.399-1.107 5.849c2.214.45 4.704-.225 4.981-.45.277-.225 4.151-1.125 4.705-.675.553.45.553-1.8.553-1.8L115.868 107z"/>
        <path fill="#2F2E41" fill-rule="nonzero" d="M118.651 98s-4.964 6.797-1.306 8.627c3.658 1.83 21.165 1.83 22.471 0 1.307-1.83 1.83-7.581 0-8.104C137.987 98 118.651 98 118.651 98z"/>
        <path fill="#1F1F1F" fill-rule="nonzero" d="M118.651 98s-4.964 6.797-1.306 8.627c3.658 1.83 21.165 1.83 22.471 0 1.307-1.83 1.83-7.581 0-8.104C137.987 98 118.651 98 118.651 98z" opacity=".2"/>
        <ellipse cx="127" cy="62.5" fill="#FFB9B9" fill-rule="nonzero" rx="6" ry="5.5"/>
        <path fill="#478529" fill-rule="nonzero" d="M119 72l5-1s1.25 4 5.25 3.25 5-3.25 5-3.25 3 1.25 3.25 1.25 3.5 1.25 3.5 2-3.75 8.25-3.75 8.25l.5 13.5-18.5-.5 1.25-13.25L119 72z"/>
        <path fill="#FFB9B9" fill-rule="nonzero" d="M115.79 78s-1.404 13.25-.468 14.25C116.257 93.25 120 96 120 96v-3l-1.871-3.75L120 80.5l-4.21-2.5zM142 78s-.854 13.313-.854 13.802c0 .488-2.195 2.198-2.926 2.198-.732 0-1.22-1.221-1.22-1.221l1.707-1.955-1.22-10.015L142 78z"/>
        <path fill="#484848" fill-rule="nonzero" d="M139.558 96.806s11.186-6.313 11.434 0c.249 6.313-5.717 8.838-5.717 8.838s-15.411 4.695-16.033 2.979c-.621-1.716-1.864-4.494-.87-4.747.995-.252 2.238-.757 2.735-.252.497.505 6.711-3.788 6.711-3.788l1.74-3.03z"/>
        <path stroke="#000" stroke-width="2" d="M144 96s-2.25 1.067-3 1.867-4 2.133-4 2.133" opacity=".2"/>
        <path fill="#478529" fill-rule="nonzero" d="M119.938 72.524L118.346 72s-5.839 6.024-3.981 7.595c1.858 1.572 2.92 2.095 3.45 2.62.531.523 3.185.785 3.185.785l-1.062-10.476zM139.45 73l2.219.514s1.725 3.857 2.218 4.372c.493.514-.74.257-1.479 1.285-.74 1.029-1.479 2.829-2.958 2.829-1.478 0-3.45-2.571-3.45-2.571L139.45 73z"/>
        <path fill="#484848" fill-rule="nonzero" d="M118.758 99.466s-9.935-6.509-13.333-1.688c-3.4 4.821 14.64 11.33 17.255 12.294 2.614.964 4.967 1.928 4.967 1.928s2.353-5.303 2.353-6.267c0-.964-1.83-.964-2.353-.964-.523 0-2.876-.482-3.399-1.206-.523-.723-5.49-4.097-5.49-4.097z"/>
        <path stroke="#000" stroke-width="2" d="M114 98s2.258 1.882 4.29 2.353c2.033.47 2.71 1.647 2.71 1.647" opacity=".2"/>
        <path fill="#484848" fill-rule="nonzero" d="M117 87.326l.199 10.397A1.31 1.31 0 0 0 118.53 99l19.574-.217a1.31 1.31 0 0 0 1.3-1.227l.594-10.18a1.293 1.293 0 0 0-.357-.968 1.324 1.324 0 0 0-.958-.408h-20.366c-.354 0-.692.14-.94.39s-.383.587-.377.936z"/>
        <path fill="#C6BA1F" fill-rule="nonzero" d="M128.03 55s.313 1.137-1.463 2.16c-1.776 1.022-2.299 4.887-.209 6.024 2.09 1.136 2.717 2.614 1.672 3.637-1.045 1.023-2.926 3.75-.418 4.432 2.508.682 2.821 2.046 2.09 2.615-.732.568 1.672-1.023 1.672-1.023s.418 2.728 2.612 2.046c2.194-.682 4.384-13.079 1.938-16.272C133.649 55.651 128.03 55 128.03 55z"/>
        <path fill="#C6BA1F" fill-rule="nonzero" d="M127 54.724c0-1.553 4.928-.437 7.04 1.732 1.464 1.501 3.686 3.76 1.824 5.353-1.862 1.593 3.192 3.68 4.547 4.313 1.355.633 4.032 2.569 1.615 3.867-2.416 1.299-2.377 2.61-1.468 2.92.91.31-2.005-.461-2.005-.461s.295 2.564-2.16 2.552c-2.456-.012-9.5-12.737-7.817-16.274 1.564-3.289-1.576-4.002-1.576-4.002z"/>
        <path fill="#C6BA1F" fill-rule="nonzero" d="M127.99 54.02c-6.352-.366-6.99 4.223-6.99 4.223.044 2.655 4.439 1.361 5.66 1.757 1.472-1.017 4.31-2.94 6.34-4.312a9.866 9.866 0 0 0-5.01-1.667z"/>
        <path stroke="#3F3D56" stroke-width="2" d="M127 84s-5.648-26.66-41-46"/>
        <path fill="#3F3D56" fill-rule="nonzero" d="M86.922 38l.078.273-1.578.325.497 1.316-.314.086L85 38.397z"/>
        <path fill="#478529" fill-rule="nonzero" d="M11 112.53c0 3.313-2.015 4.47-4.5 4.47a7.913 7.913 0 0 1-.514-.017C3.743 116.828 2 115.61 2 112.529c0-3.19 4.168-7.213 4.481-7.511L6.5 105s4.5 4.216 4.5 7.53z"/>
        <path fill="#3F3D56" fill-rule="nonzero" d="M4.918 116.495l1.745-2.25-1.75 2.497-.004.258a8.437 8.437 0 0 1-.363-.015l.188-3.316-.001-.026.003-.005.018-.313L3 110.823l1.76 2.267.003.067.142-2.506-1.501-2.585 1.52 2.146.148-5.194V105v.017l-.024 4.096 1.494-1.624-1.5 1.977-.04 2.243 1.395-2.153-1.4 2.483-.023 1.247L7 110.29l-2.034 3.431-.048 2.774z"/>
        <path fill="#2F2E41" fill-rule="nonzero" d="M31.77 110.699l.967-.699s.639 3.477-.075 3.999c-.713.52-3.39 1.389-3.39 2.43 0 1.043-6.065 2.432-6.243.87-.179-1.564.535-2.432.535-2.432s2.854-2.779 3.211-3.3c.357-.52 1.249-1.563 1.249-1.563l3.746.695z"/>
        <path fill="#484848" fill-rule="nonzero" d="M18 66.907l.075.432c.043.248.104.598.176 1.03.766 4.445 2.998 17.528 2.846 17.96-.182.52-1.457 2.427 0 2.947.14.05.292.214.454.47.313.553.571 1.132.77 1.73.87 2.4 1.8 6.242 2.337 8.902.235 1.168.395 2.108.442 2.6.017.115.019.23.006.344-.182.694 1.093 3.121 1.64 3.815.546.694 1.457 1.387 1.275 2.08-.182.694 4.555 2.602 5.101 1.388.547-1.214.547-1.907.73-2.254.181-.347.364-2.775-.547-3.121-.911-.347-.365-6.416-1.276-7.63-.304-.404-.769-1.772-1.255-3.418-.191-.645-.385-1.332-.574-2.02-.769-2.821-1.45-5.66-1.45-5.66l.182-20.288L18.91 65l-.257.54-.512 1.07-.142.297z"/>
        <path fill="#2F2E41" fill-rule="nonzero" d="M17.957 100.605s-1.486-1.361-2.23 0c-.742 1.362-1.485 6.638-2.786 7.83-1.3 1.191-2.972 7.148-1.114 7.489 1.857.34 3.9-.51 4.086-1.532.186-1.021 4.087-6.298 4.087-6.808 0-.511-2.6-2.383-2.6-2.383l.557-4.596z"/>
        <path fill="#484848" fill-rule="nonzero" d="M38 56.487s-2.295 20.767-2.825 22.719c-.53 1.952-3.354 9.407-4.237 10.65-.883 1.242-6.533 11.359-7.239 11.891-.706.533-2.118 1.952-2.118 1.952s-2.649 2.663-3.002 3.195c-.353.533-3.354-1.065-3.53-2.13-.177-1.065.176-2.84.352-3.55.177-.71-.353-1.774.177-2.307.53-.532 3.178-3.195 3.178-4.437 0-1.242 4.59-8.52 6.356-10.117 1.765-1.597 1.412-4.26 1.412-4.26V69.267l-9.71-3.018s.53-8.52 1.765-8.52c1.236 0 17.479-2.839 19.421-1.242z"/>
        <circle cx="24" cy="22" r="6" fill="#9F616A" fill-rule="nonzero"/>
        <path fill="#9F616A" fill-rule="nonzero" d="M26.167 26.173s.742 2.795 1.67 3.54c.928.746-2.413 3.914-2.413 3.914l-6.31.373L18 30.46s2.042-4.1 1.485-6.71c-.557-2.609 6.682 2.423 6.682 2.423z"/>
        <path fill="#044D4C" fill-rule="nonzero" d="M28.925 29s-1.536.176-1.878.705c-.341.528-2.73 2.113-4.609 1.76-1.877-.351-3.072-.88-3.414-.704-.341.176-1.024 3.875-1.024 3.875l1.878 5.637-.342 15.5L19.024 60s-1.024-1.41 3.073-.528c4.097.88 9.389-.705 11.096-.881 1.707-.176 4.609-.705 4.78-1.761.17-1.057-.513-4.932-.513-4.932l-2.73-11.801-1.708-6.341L28.925 29z"/>
        <path fill="#D0CDE1" fill-rule="nonzero" d="M27 28.377s1.54-.788 2.085-.085c.546.703 7.462 1.757 7.462 2.284 0 .527 1.456 14.762 1.092 15.992-.364 1.23.728 2.636.728 2.636l1.273 5.272s3.458 10.016 2.002 10.368c-1.456.351-2.73 0-3.275 0-.546 0-.364-6.678-1.82-8.435-1.456-1.758-3.458-6.15-3.822-7.03-.364-.878-4.914-13.004-4.732-14.41.182-1.405-.993-6.592-.993-6.592zM19.95 30s-1.514 0-1.703.342c-.19.341-2.083 2.561-2.84 3.074C14.65 33.928 12 36.148 12 36.66c0 .512 5.49 4.27 5.49 4.27s2.27 10.076 1.135 13.492c-1.136 3.416-2.84 11.614-2.082 12.126.757.513 2.46.684 2.46 0 0-.683 1.137-8.027 2.083-9.564.946-1.537 3.786-11.272 2.65-14.005C22.6 40.247 19.95 30 19.95 30z"/>
        <path fill="#9F616A" fill-rule="nonzero" d="M41.996 46s.169 5.358-1.69 8.123C38.448 56.89 37.266 60 37.266 60s-3.042-.864-3.549-1.901C33.21 57.062 30 57.926 30 57.58c0-.345 3.886-2.074 4.224-2.42.338-.345 1.52-.345 2.196-1.037.676-.69.845-2.246.845-2.246l.676-4.494L41.996 46z"/>
        <path fill="#101010" fill-rule="nonzero" d="M27.83 18.516c.454-.041.922-.087 1.322-.303.899-.485 1.137-1.865.453-2.623a3.388 3.388 0 0 0-.628-.505l-1.358-.925c-.6-.409-1.216-.824-1.916-1.017-.634-.174-1.303-.156-1.96-.116-1.273.08-2.554.243-3.752.683-1.197.44-2.315 1.175-3.04 2.225-1.15 1.665-1.166 3.91-.532 5.831.633 1.921 1.836 3.595 3.021 5.234l.616-3.002c.054-.268.125-.56.348-.719.552-.393 1.228.414 1.906.41.436-.004.802-.363.967-.766.165-.404.176-.85.214-1.285.081-.92.403-2.2 1.273-2.706.812-.473 2.154-.333 3.066-.416z"/>
        <path fill="#000" fill-rule="nonzero" d="M28 66.055s-1.078 17.4-1.716 17.934c-.639.534 0-17.989 0-17.989l1.716.055z" opacity=".1"/>
        <path fill="#D0CDE1" fill-rule="nonzero" d="M34 30h1.494s6.347 8.324 5.6 8.867c-.746.543 0 1.99 0 1.99l1.494 2.714s1.867 1.629 1.307 1.99c-.56.363-1.307 1.81-1.307 1.81S38.854 46.83 37.734 49l-2.421-2.963L34 30z"/>
        <path fill="#2F2E41" fill-rule="nonzero" d="M30.464 35.378l4.828-1.992 3.714 8.99-4.827 1.992z"/>
        <ellipse cx="34.359" cy="37.773" fill="#478529" fill-rule="nonzero" rx="1.044" ry="1" transform="rotate(-22.438 34.36 37.773)"/>
        <path fill="#9F616A" fill-rule="nonzero" d="M31.204 44.353s-12.545 10.26-14.636 7.011c-2.091-3.25 2.265-5.985 2.265-5.985s3.833.17 8.19-2.566l4.356-1.88s3.976-5.573 5.332-3.451c1.355 2.122-2.314 5.815-5.507 6.87z"/>
        <path fill="#D0CDE1" fill-rule="nonzero" d="M14.601 35l-1.907.692v5.19L12 41.92s.173 2.076.694 2.595c.52.519 1.56.346 1.214 1.557a6.541 6.541 0 0 0-.174 2.421s3.122 3.98 3.295 3.46c.174-.519 2.602-6.92 2.949-6.92S16.509 35 16.509 35h-1.908z"/>
        <path fill="#414040" fill-rule="nonzero" d="M36.813 62s1.855-1.725.927-1.81c-.927-.087-4.155-1.812-4.693-.95-.539.863 3.766 2.76 3.766 2.76z"/>
        <ellipse cx="71.5" cy="27" fill="#57B894" fill-rule="nonzero" rx="2.5" ry="1"/>
        <path stroke="#3F3D56" stroke-width="2" d="M82 32c-5.667-2.087-11.333-2.087-17 0v-6.776a30.136 30.136 0 0 1 17 0V32z"/>
        <path stroke="#3F3D56" stroke-width="2" d="M79 30c-4-1.566-8-1.566-12 0v-5.082a20.073 20.073 0 0 1 12 0V30z"/>
        <ellipse cx="72.5" cy="27" stroke="#3F3D56" stroke-width="2" rx="2.5" ry="1"/>
        <ellipse cx="73.524" cy="35.722" fill="#57B894" fill-rule="nonzero" rx="2.537" ry="1.342" transform="rotate(-11.535 73.524 35.722)"/>
        <path stroke="#3F3D56" stroke-width="2" d="M84 38.38c-6.296-1.026-12.142.18-17.537 3.62L65 34.752a30.687 30.687 0 0 1 17.537-3.62L84 38.38z"/>
        <path stroke="#3F3D56" stroke-width="2" d="M81 37.697c-4.308-.654-8.308.114-12 2.303l-1-4.613a22.327 22.327 0 0 1 12-2.303l1 4.613z"/>
        <ellipse cx="74.282" cy="34.958" stroke="#3F3D56" stroke-width="2" rx="2.537" ry="1.342" transform="rotate(-11.535 74.282 34.958)"/>
        <ellipse cx="72.998" cy="44.064" fill="#57B894" fill-rule="nonzero" rx="1.342" ry="2.537" transform="rotate(-86.019 72.998 44.064)"/>
        <path stroke="#3F3D56" stroke-width="2" d="M82.502 50c-5.68-2.573-11.515-2.973-17.502-1.201l.498-7.054A30.77 30.77 0 0 1 83 42.946L82.502 50z"/>
        <path stroke="#3F3D56" stroke-width="2" d="M79.668 48c-3.787-1.715-7.676-1.982-11.668-.8l.332-4.703a20.513 20.513 0 0 1 11.668.8L79.668 48z"/>
        <ellipse cx="73.933" cy="43.531" stroke="#3F3D56" stroke-width="2" rx="1.342" ry="2.537" transform="rotate(-86.019 73.933 43.53)"/>
        <path stroke="#3F3D56" stroke-width="2" d="M62 32.282S50.332 30.477 42 36"/>
        <path fill="#3F3D56" fill-rule="nonzero" d="M42.598 34l.314.085-.491 1.32 1.579.322-.077.273L42 35.608z"/>
    </g>
</svg>
