<svg xmlns="http://www.w3.org/2000/svg" width="174" height="103" viewBox="0 0 174 103">
    <defs>
        <linearGradient id="a" x1="50%" x2="50%" y1="100%" y2="0%">
            <stop offset="0%" stop-color="gray" stop-opacity=".25"/>
            <stop offset="53.514%" stop-color="gray" stop-opacity=".12"/>
            <stop offset="100%" stop-color="gray" stop-opacity=".1"/>
        </linearGradient>
    </defs>
    <g fill="none" fill-rule="evenodd">
        <circle cx="103.5" cy="13.5" r="4.5" stroke="#3F3D56" stroke-width=".5"/>
        <path fill="#478529" fill-rule="nonzero" d="M111.843 5.204l-1.02-1.039a.537.537 0 0 0-.768-.005l-6.397 6.435-2.705-2.766a.536.536 0 0 0-.763-.005l-1.03 1.034a.56.56 0 0 0-.005.779l4.109 4.2a.54.54 0 0 0 .768.005l7.805-7.858a.553.553 0 0 0 .006-.78z"/>
        <rect width="81" height="9" y="11" fill="#F2F2F2" fill-rule="nonzero" rx="3.958"/>
        <rect width="81" height="9" y="26" fill="#F2F2F2" fill-rule="nonzero" rx="3.958"/>
        <rect width="81" height="9" y="43" fill="#F2F2F2" fill-rule="nonzero" rx="3.958"/>
        <rect width="81" height="9" y="60" fill="#F2F2F2" fill-rule="nonzero" rx="3.958"/>
        <rect width="81" height="9" x="2" y="9" stroke="#3F3D56" stroke-width=".5" rx="3.958"/>
        <rect width="81" height="9" x="2" y="25" stroke="#3F3D56" stroke-width=".5" rx="3.958"/>
        <rect width="81" height="9" x="2" y="41" stroke="#3F3D56" stroke-width=".5" rx="3.958"/>
        <rect width="81" height="9" x="2" y="58" stroke="#3F3D56" stroke-width=".5" rx="3.958"/>
        <circle cx="103.5" cy="29.5" r="4.5" stroke="#3F3D56" stroke-width=".5"/>
        <circle cx="103.5" cy="45.5" r="4.5" stroke="#3F3D56" stroke-width=".5"/>
        <circle cx="103.5" cy="62.5" r="4.5" stroke="#3F3D56" stroke-width=".5"/>
        <path fill="#478529" fill-rule="nonzero" d="M111.843 21.204l-1.02-1.039a.537.537 0 0 0-.768-.005l-6.397 6.435-2.705-2.766a.536.536 0 0 0-.763-.005l-1.03 1.034a.56.56 0 0 0-.005.779l4.109 4.2a.54.54 0 0 0 .768.005l7.805-7.858a.553.553 0 0 0 .006-.78zM111.843 54.204l-1.02-1.039a.537.537 0 0 0-.768-.005l-6.397 6.435-2.705-2.766a.536.536 0 0 0-.763-.005l-1.03 1.034a.56.56 0 0 0-.005.779l4.109 4.2a.54.54 0 0 0 .768.005l7.805-7.858a.553.553 0 0 0 .006-.78z"/>
        <ellipse cx="141" cy="98.5" fill="#F2F2F2" fill-rule="nonzero" rx="27" ry="4.5"/>
        <ellipse cx="146" cy="96.5" stroke="#3F3D56" stroke-width=".5" rx="27" ry="4.5"/>
        <path fill="url(#a)" fill-rule="nonzero" d="M158.77 19.41c-.08-.09-.16-.177-.245-.262.643-.723 1.308-1.465 1.302-2.395-.007-1.13-1.017-1.997-1.395-3.065-.513-1.454.2-3.011.493-4.522a8.435 8.435 0 0 0-1.853-6.983c-.297-.348-.642-.685-1.083-.823-.672-.21-1.387.082-2.087.167-2.31.284-4.413-1.693-6.734-1.516a1.26 1.26 0 0 0-.447.1c-.3.142-.464.457-.65.728-.72 1.053-1.932 1.577-3.137 2.118-.151.044-.295.11-.428.195-.362.167-.718.341-1.054.539-2.275 1.336-1.945 3.206-.604 4.362-.262 1.296-1.597 2.438-1.367 3.771.18 1.045 1.277 1.757 1.488 2.796.122.604-.07 1.18-.34 1.75-2.545.585-5.42 1.662-5.645 3.563-.39 3.306-1.566 12.438-1.566 12.438s-1.361 7.316 3.812 3.857l-.066.195a42.29 42.29 0 0 0-1.899 8.624c-.052.436-.158.78-.35.892-.069.041.069.106.367.186-.033.123-.07.246-.102.37a34.81 34.81 0 0 0-1.085 6.53 45.62 45.62 0 0 1-.813 5.818c-1.225 6.12 0 13.968 0 13.968l2.674 12.496.457 2.137c.303.331.672.596 1.084.776a16.544 16.544 0 0 1 .39 2.59c-.324.04-.613.22-.793.491-.953 1.33.136 2.395-3.54 5.055-.95.688-1.407 1.313-1.524 1.844-.125.571.147 1.033.632 1.346.083.054.17.102.258.144l.004.002c.045.02.091.041.138.06.048.02.097.038.146.055l.009.003c.046.016.094.031.142.045l.01.003c.05.014.101.028.153.04l.013.003c.047.011.095.021.144.03l.019.004c.052.01.104.018.158.026l.017.002c.048.007.096.012.144.017.01 0 .018.002.028.003.053.005.106.009.16.011l.02.001c.048.003.096.004.144.005h.034c.054 0 .108 0 .162-.002l.021-.001a4.07 4.07 0 0 0 .144-.008l.038-.003c.054-.005.108-.01.162-.017l.02-.002.144-.021.04-.007.161-.031.016-.004a3.965 3.965 0 0 0 .344-.091l.01-.003a3.73 3.73 0 0 0 .34-.128c2.45-1.064 7.488-3.858 7.488-3.858v-.162l-.001-.043v-.041l-.002-.057v-.044l-.001-.065-.003-.116c-.025-1.163-.14-3.833-.674-3.729-.181.036-.305.29-.432.581l-.063-.119c-.52-.993-1.27-2.698-1.343-4.364a7.85 7.85 0 0 0 1.158-1.02s-.274-1.144-.507-2.35c-.201-1.046-.373-2.14-.31-2.572.136-.93-1.634-8.114-1.634-8.114s.182-1.58.549-3.777c.712-4.269 2.114-10.865 4.207-12.73.049-.043.096-.084.145-.121 0 0 1.498.266 2.723 8.646l.356 3.733c.101 1.034.278 2.059.528 3.068a16.04 16.04 0 0 1 .342 4.906c-.156 2.2-.222 4.79-.25 6.608-.023 1.37-.023 2.304-.023 2.304.254.213.527.4.817.56v1.221a1.012 1.012 0 0 1-.286.694l-.005.005a1.88 1.88 0 0 0-.411.75c-.238.425-.439 1.115-.523 2.224-.272 3.592-.409 3.193-.409 3.193-.156.388-.26.796-.308 1.211a2.897 2.897 0 0 0-.014.235v.036a2.444 2.444 0 0 0 .02.31 1.728 1.728 0 0 0 .038.187c.008.032.018.065.029.096l.011.03c.01.028.023.056.035.084l.012.025a1.083 1.083 0 0 0 .134.206l.017.02c.025.03.053.057.082.083l.01.008c.03.026.06.05.093.072l.015.01c.036.024.074.045.112.064l.024.012c.041.02.084.036.127.051l.023.007c.05.016.1.03.152.04l.005.002c.053.01.11.019.168.025l.024.003a2.31 2.31 0 0 0 .22.01c.064 0 .131-.001.202-.006l.033-.003a3.72 3.72 0 0 0 .234-.024c2.86-.4 4.22-.666 4.085-2.262-.082-.962-.313-2.36-.483-3.317a4.963 4.963 0 0 0-.471-1.4l.02-.23c.049-.66.046-1.445-.156-1.97l.063-1.165c.71-.179 1.35-.56 1.844-1.097 0 0 .02-.863.08-2.007.09-1.768.27-4.208.6-5.176.545-1.596 0-7.183 0-7.183s-2.042-9.578-.136-13.702c1.682-3.638 1.667-7.277.05-10.823a.55.55 0 0 0 .086-.085s-.408-.266-.272-3.326c.104-2.335-.585-4.746-.917-5.758.52.222 1.054.412 1.598.57 3.131.931 3.403-2.528 3.403-2.528l.681-5.188.808-7.733c.221-.607.518-2.122-1.052-3.898zm-13.841-5.126c-.004.085-.01.17-.018.256a3.42 3.42 0 0 1-.175.808 5.33 5.33 0 0 0 .169-1.08l.024.016zm8.23 18.885c.05.088.095.173.14.257l-.345-.174a7.603 7.603 0 0 1 .614-1.812c.339-.671.617-1.37.832-2.089-.01.831.031 1.662.121 2.488.273 2.128-1.361 1.33-1.361 1.33z"/>
        <path fill="#20110E" fill-rule="nonzero" d="M143.256 4.91c-.49.29-1.002.627-1.176 1.12-.281.797.424 1.596.494 2.427.127 1.51-1.834 2.759-1.545 4.253.198 1.023 1.403 1.72 1.635 2.738.338 1.486-1.51 2.795-1.364 4.304.077.804.719 1.486 1.447 1.985A7.64 7.64 0 0 0 146.28 23c-.086-1.292-1.186-2.467-.997-3.751.13-.88.84-1.6 1.251-2.412.722-1.425.492-3.075.058-4.587-.433-1.512-1.058-3.006-1.09-4.564-.018-.937.487-2.316.116-3.205-.45-1.082-1.524-.07-2.363.429z"/>
        <path fill="#FFCBA7" fill-rule="nonzero" d="M143.256 4.91c-.49.29-1.002.627-1.176 1.12-.281.797.424 1.596.494 2.427.127 1.51-1.834 2.759-1.545 4.253.198 1.023 1.403 1.72 1.635 2.738.338 1.486-1.51 2.795-1.364 4.304.077.804.719 1.486 1.447 1.985A7.64 7.64 0 0 0 146.28 23c-.086-1.292-1.186-2.467-.997-3.751.13-.88.84-1.6 1.251-2.412.722-1.425.492-3.075.058-4.587-.433-1.512-1.058-3.006-1.09-4.564-.018-.937.487-2.316.116-3.205-.45-1.082-1.524-.07-2.363.429z" opacity=".1"/>
        <path fill="#FFB9B9" fill-rule="nonzero" d="M145 92.98l-1.286 1.208s-4.571 2.282-4-.805c.157-.918.19-1.85.099-2.776a16.343 16.343 0 0 0-.813-3.802l4.286-.805c-.713 2.105.461 4.754 1.194 6.103.296.544.52.877.52.877zM151.973 90.728c-.031.433-.084.863-.16 1.29 0 0-3.49 2.386-3.768-.28-.182-1.738.229-2.523.538-2.858l.005-.006c.187-.198.292-.46.294-.732V85l3.071.983-.14 2.666c.207.555.21 1.383.16 2.08z"/>
        <path fill="#000" fill-rule="nonzero" d="M145 92.166l-1.205 1.097s-4.284 2.072-3.749-.731a9.19 9.19 0 0 0 .093-2.52c.938-.126 2.05.814 2.05.814 1.569 2.015 1.992 1.252 2.324.544.277.494.487.796.487.796z" opacity=".05"/>
        <path fill="#4A4B4A" fill-rule="nonzero" d="M141.612 90.882s-1.824-1.691-2.736-.39c-.912 1.301.13 2.342-3.388 4.944s0 4.294 2.346 3.253c2.345-1.041 7.166-3.773 7.166-3.773s0-4.294-.651-4.164c-.652.13-.522 3.253-2.737.13z"/>
        <path fill="#000" fill-rule="nonzero" d="M152 90.882c-.032.403-.085.804-.16 1.202 0 0-3.514 2.225-3.795-.261-.183-1.62.23-2.352.542-2.665a.891.891 0 0 1 .863-.084c.563-.233 1.181.156 1.693.658.346.34.635.728.857 1.15z" opacity=".05"/>
        <path fill="#4A4B4A" fill-rule="nonzero" d="M149.538 89.077s-1.519-.809-1.795 2.828c-.276 3.636-.414 3.232-.414 3.232s-1.381 3.232 1.519 2.828c2.9-.404 4.28-.673 4.143-2.29-.084-.973-.317-2.388-.49-3.358a4.892 4.892 0 0 0-1.3-2.564c-.504-.517-1.11-.916-1.663-.676z"/>
        <path fill="#7A4F01" fill-rule="nonzero" d="M154.918 72.675s.523 5.495 0 7.065c-.317.952-.49 3.352-.576 5.09a78.467 78.467 0 0 0-.077 1.975c-2.484 2.616-5.36 0-5.36 0s0-.919.02-2.266c.028-1.789.092-4.336.24-6.5a16.145 16.145 0 0 0-.327-4.825c-.24-.993-.41-2-.508-3.017l-.34-3.671c-1.177-8.243-2.616-8.504-2.616-8.504a2.82 2.82 0 0 0-.14.119c-2.009 1.834-3.356 8.322-4.04 12.52a84.624 84.624 0 0 0-.526 3.715s1.7 7.064 1.569 7.98c-.06.425.104 1.5.298 2.53a62.18 62.18 0 0 0 .486 2.311c-3.268 3.532-5.491.785-5.491.785l-.44-2.101-2.567-12.29s-1.177-7.72 0-13.738c.38-1.888.64-3.8.78-5.721.148-2.169.496-4.32 1.042-6.424.16-.623.337-1.24.531-1.854 0 0 4.91-.854 9.533-.854 3.467 0 6.772.48 7.725 2.163.22.387.42.775.599 1.164 1.655 3.56 1.705 7.217.055 10.872-1.83 4.056.13 13.476.13 13.476z"/>
        <path fill="#FFB9B9" fill-rule="nonzero" d="M144.588 24s-6.807-7.05-1.67-6.528c1.165.119 1.954-.093 2.477-.49.596-.452.846-1.144.915-1.866.142-1.44-.438-2.997-.438-2.997s6.936-5.615 5.523 1.436a12.209 12.209 0 0 0-.27 2.179c-.023 1.496.462 2.07 1.141 2.304 1.146.399 2.849-.159 3.624 1.131C157.303 21.52 144.588 24 144.588 24z"/>
        <path fill="#000" fill-rule="nonzero" d="M144.588 24s-6.807-7.05-1.67-6.528c1.165.119 1.954-.093 2.477-.49.596-.452.846-1.144.915-1.866.142-1.44-.438-2.997-.438-2.997s6.936-5.615 5.523 1.436a12.209 12.209 0 0 0-.27 2.179c-.023 1.496.462 2.07 1.141 2.304 1.146.399 2.849-.159 3.624 1.131C157.303 21.52 144.588 24 144.588 24z" opacity=".1"/>
        <path fill="#FFB9B9" fill-rule="nonzero" d="M154 9.502a5.5 5.5 0 1 1-11.002-.005A5.5 5.5 0 0 1 154 9.502z"/>
        <path fill="#000" fill-rule="nonzero" d="M144.588 25s-6.807-8.037-1.67-7.442c1.165.136 1.954-.106 2.477-.558-.994 1.911-2.113 5.348 2.918 5.023 4.604-.296 4.526-2.423 3.953-3.819 1.146.454 2.849-.181 3.624 1.289 1.413 2.68-11.302 5.507-11.302 5.507z" opacity=".05"/>
        <path fill="#000" fill-rule="nonzero" d="M155 48.358c-1.153 1.747-15.851-.543-18-1.303.155-.702.326-1.4.514-2.091 0 0 4.758-.964 9.239-.964 3.36 0 6.563.542 7.487 2.44.213.437.406.874.58 1.313.081.529.18.605.18.605z" opacity=".1"/>
        <path fill="#DD7157" fill-rule="nonzero" d="M145.011 16s-8.934.706-9.331 4.046c-.38 3.193-1.523 12.01-1.523 12.01s-1.323 7.064 3.707 3.724l-.065.188a40.596 40.596 0 0 0-1.846 8.328c-.051.42-.153.753-.34.861-.661.385 17.737 2.954 19.06 1.284 0 0-.396-.256-.264-3.21.132-2.955-1.059-6.038-1.059-6.038s-1.059-3.082.397-6.037c1.456-2.954.927-3.853.927-3.853l5.03-3.725s1.086-1.807-.9-4.037a6.958 6.958 0 0 0-4.728-2.26l-3.469-.24s3.802 3.968-3.346 4.354c-7.147.385-2.25-5.395-2.25-5.395z"/>
        <path fill="#000" fill-rule="nonzero" d="M140.915 23s.34 2.032-.34 2.667c-.68.635-.85 3.555 0 5.333" opacity=".05"/>
        <path fill="#000" fill-rule="nonzero" d="M146 57.09c-1.92 1.892-3.206 8.581-3.859 12.91-.909-6.026 2.869-16 2.869-16l.99 3.09zM144 87.247c-3.307 3.434-5.556.763-5.556.763L138 85.968c1.25.624 3.362 1.109 5.508-.968.226 1.154.492 2.247.492 2.247zM154 85.255c-.063.985-.085 1.728-.085 1.728-2.741 2.289-5.915 0-5.915 0s0-.804.023-1.983c1.19.6 3.33 1.26 5.977.255z" opacity=".1"/>
        <rect width="9" height="4" x="140" y="27" fill="#CDD0DB" fill-rule="nonzero" rx=".579"/>
        <rect width="9" height="4" x="140" y="27" fill="#000" fill-rule="nonzero" opacity=".05" rx=".579"/>
        <rect width="9" height="4" x="140" y="28" fill="#3F3D56" fill-rule="nonzero" rx=".579"/>
        <circle cx="146.5" cy="29.5" r="1" fill="#9DA7C0" fill-rule="nonzero"/>
        <path fill="#000" fill-rule="nonzero" d="M137.111 33.266c.245-.836.8-1.505 1.517-1.828.567-.24 1.033-.719 1.302-1.338.53-1.34 1.47-2.723 3.887-1.801 2.417.921-.671 1.536-.671 1.536s5.505-.922 3.356.921c-2.148 1.843-4.833 2.918-4.833 2.918l-1.323 1.602c-.383.473-.925.736-1.489.724-.564-.013-1.096-.301-1.463-.791a2.182 2.182 0 0 1-.283-1.943z" opacity=".05"/>
        <path fill="#FFB9B9" fill-rule="nonzero" d="M137.111 33.266c.245-.836.8-1.505 1.517-1.828.567-.24 1.033-.719 1.302-1.338.53-1.34 1.47-2.723 3.887-1.801 2.417.921-.671 1.536-.671 1.536s5.505-.922 3.356.921c-2.148 1.843-4.833 2.918-4.833 2.918l-1.323 1.602c-.383.473-.925.736-1.489.724-.564-.013-1.096-.301-1.463-.791a2.182 2.182 0 0 1-.283-1.943z"/>
        <path fill="#000" fill-rule="nonzero" d="M155 35.689L154.083 38l-1.175-.896-3.282-2.503-2.228-1.496c-3.146-2.447 0-2.855 0-2.855-1.18-.543 0-1.087 0-1.087 4.194-.952 3.408 2.583 3.408 2.583l2.657 1.429.882.474.655 2.04z" opacity=".05"/>
        <path fill="#FFB9B9" fill-rule="nonzero" d="M155 35.689L154.083 38l-1.175-.896-3.282-2.503-2.228-1.496c-3.146-2.447 0-2.855 0-2.855-1.18-.543 0-1.087 0-1.087 4.194-.952 3.408 2.583 3.408 2.583l2.657 1.429.882.474.655 2.04z"/>
        <path fill="#000" fill-rule="nonzero" d="M154 35.605L153.123 38 152 37.072c1.016.04 2.217-.512.53-4.072l.843.492.627 2.113z" opacity=".05"/>
        <path fill="#DD7157" fill-rule="nonzero" d="M159.747 22l.253 1.068-.779 7.894-.656 5.296s-.263 3.53-3.283 2.58c-3.02-.951-3.282-1.901-3.282-1.901s4.333 1.493 1.576-3.803c0 0 1.575.815 1.313-1.357-.263-2.173 0-5.975 0-5.975L159.747 22z"/>
        <path fill="#000" fill-rule="nonzero" d="M154 9.569c0 2.6-1.78 4.855-4.287 5.431-.184-.539-.315-1.075-.18-1.62.26-1.058 1.466-1.83 1.332-2.911a.723.723 0 0 0-.122-.34c-.27-.36-.82-.18-1.258-.092a2.393 2.393 0 0 1-2.678-1.67 3.71 3.71 0 0 1-3.807.892c.166-3.01 2.67-5.34 5.649-5.257C151.628 4.086 154 6.554 154 9.57z" opacity=".05"/>
        <path fill="#56413D" fill-rule="nonzero" d="M147.327 8.904c.357 1.173 1.51 1.898 2.7 1.697.442-.09.997-.272 1.27.094a.72.72 0 0 1 .122.343c.136 1.1-1.081 1.884-1.344 2.96-.27 1.107.522 2.177.69 3.305.093.617-.005 1.246.002 1.87.007.624.145 1.295.599 1.714.454.419 1.293.423 1.597-.119 1.453.783.873 3.208 1.976 4.449.609.684 1.61.85 2.512.761.211-.003.417-.07.59-.194.15-.15.25-.343.289-.553a4.57 4.57 0 0 0-.113-2.662c-.144-.408-.352-.822-.298-1.253.066-.334.22-.644.448-.894.693-.877 1.64-1.724 1.633-2.85-.007-1.118-.965-1.975-1.322-3.032-.487-1.438.188-2.979.466-4.473a8.605 8.605 0 0 0-1.757-6.908c-.281-.344-.608-.677-1.027-.814-.637-.208-1.315.081-1.978.166-2.192.28-4.185-1.675-6.387-1.5-.146.006-.29.039-.424.098-.285.141-.44.453-.616.721-.972 1.48-2.882 1.903-4.38 2.821-4.376 2.681 1.406 7.535 4.752 4.253z"/>
        <path fill="#FFF" fill-rule="nonzero" d="M137.833 99.096c-1.523.734-3.54.217-3.804-1.01-.32 1.62 2.065 2.415 3.804 1.576 2.346-1.131 7.167-4.1 7.167-4.1s0-.22-.007-.562c-.14.086-4.85 2.982-7.16 4.096zM152.983 95c-.159 1.513-1.537 1.831-4.136 2.284-1.321.23-1.753-.484-1.832-1.329-.087 1.082.166 2.291 1.832 2.001 2.9-.504 4.282-.84 4.144-2.86l-.008-.096z" opacity=".3"/>
        <g fill="#000" fill-rule="nonzero" opacity=".1">
            <path d="M157.691 25.44c-.887.088-1.871-.076-2.47-.76-1.084-1.24-.514-3.663-1.942-4.445-.3.541-1.125.537-1.571.118-.447-.418-.582-1.088-.589-1.712-.007-.624.09-1.252-.001-1.869-.166-1.127-.945-2.196-.679-3.302.258-1.075 1.455-1.858 1.32-2.956a.726.726 0 0 0-.12-.344c-.267-.365-.813-.184-1.248-.094-1.17.201-2.303-.523-2.654-1.695-2.941 2.93-7.794-.633-5.72-3.335-3.237 2.725 2.075 6.987 5.212 3.86.351 1.173 1.485 1.897 2.655 1.696.434-.09.98-.271 1.248.094.068.102.11.22.12.343.134 1.099-1.063 1.882-1.32 2.957-.266 1.106.512 2.175.678 3.302.09.617-.005 1.245.001 1.869.007.624.143 1.294.589 1.712.446.419 1.272.423 1.57-.118 1.43.782.859 3.205 1.944 4.445.598.684 1.582.848 2.47.76.207-.003.41-.07.58-.194a.861.861 0 0 0 .234-.384c-.1.026-.203.044-.307.053zM147.371 1.313c.044-.067.086-.138.13-.207l-.032.013c-.28.141-.432.452-.605.72a3.42 3.42 0 0 1-.19.265c.268-.228.503-.494.697-.79z"/>
        </g>
        <path fill="#000" fill-rule="nonzero" d="M142.014 37s-.264 1.323 1.471 1.91c1.735.588-1.47-1.91-1.47-1.91zM140.17 40s-.828.956 1.17 2.617c1.996 1.66-1.17-2.617-1.17-2.617zM138 56s2.616-1.058 2.973-2.644C141.331 51.77 138 56 138 56zM138 73s1.146 1.138 1.872.986C140.598 73.834 138 73 138 73z" opacity=".1"/>
        <path fill="#000" fill-rule="nonzero" d="M138 73.821s.613.31 1.738.354c1.125.044-1.738-.354-1.738-.354z" opacity=".1"/>
        <path fill="#DA9F5A" fill-rule="nonzero" d="M159.976 79.82a3 3 0 1 0 .4-5.754l.074 1.544-.73-1.323a2.988 2.988 0 0 0-1.712 2.501 3 3 0 0 0 1.968 3.031z"/>
        <path stroke="#3F3D56" stroke-width=".5" d="M162.523 96c-.239-1.248.795-2.354 1.815-3.073 1.021-.72 2.214-1.426 2.562-2.646.501-1.754-.99-3.36-2.15-4.746a17.201 17.201 0 0 1-2.203-3.364 4.715 4.715 0 0 1-.527-1.53c-.092-.777.151-1.55.396-2.292.816-2.47 1.688-4.92 2.617-7.349"/>
        <path stroke="#3F3D56" stroke-width=".5" d="M159.976 79.82a3 3 0 1 0 .4-5.754l.074 1.544-.73-1.323a2.988 2.988 0 0 0-1.712 2.501 3 3 0 0 0 1.968 3.031z"/>
        <path fill="#DA9F5A" fill-rule="nonzero" d="M161.18 71.976a2.997 2.997 0 0 1 2.16-1.902l.247 1.468.457-1.542a3 3 0 1 1-2.864 1.976z"/>
        <path stroke="#3F3D56" stroke-width=".5" d="M162.18 70.977a2.997 2.997 0 0 1 2.16-1.903l.247 1.468.457-1.542a3 3 0 1 1-2.864 1.976z"/>
        <path fill="#DA9F5A" fill-rule="nonzero" d="M163.977 84.82a3 3 0 0 0 2.655-5.336l-.352 1.185-.25-1.485a3 3 0 0 0-2.053 5.636z"/>
        <path stroke="#3F3D56" stroke-width=".5" d="M163.977 84.82a3 3 0 0 0 2.655-5.337l-.352 1.185-.25-1.485a3 3 0 1 0-2.054 5.637h.001z"/>
        <path fill="#DA9F5A" fill-rule="nonzero" d="M161.046 90.52a3 3 0 1 0 .578-2.351l1.337 2.013-1.826-1.069a2.974 2.974 0 0 0-.089 1.406z"/>
        <path stroke="#3F3D56" stroke-width=".5" d="M161.046 89.52a3 3 0 1 0 .578-2.351l1.337 2.013-1.826-1.069a2.974 2.974 0 0 0-.089 1.406z"/>
        <path fill="#36231D" fill-rule="nonzero" d="M159 97.283s2.419-.992 3.148-1.536c.729-.544 3.72-1.193 3.901-.32.18.87 3.635 4.335.904 4.358-2.73.023-6.345.469-7.072.005-.728-.464-.881-2.507-.881-2.507z"/>
        <path fill="#000" fill-rule="nonzero" d="M167.003 99.428c-2.731.025-6.346.517-7.073.006-.555-.39-.775-1.789-.85-2.434l-.08.004s.153 2.252.88 2.764c.728.512 4.343.02 7.074-.005.788-.008 1.06-.332 1.045-.811-.11.29-.41.47-.996.476z" opacity=".2"/>
    </g>
</svg>
