<svg xmlns="http://www.w3.org/2000/svg" width="134" height="111" viewBox="0 0 134 111">
    <g fill="none" fill-rule="evenodd">
        <path fill="#3F3D56" fill-rule="nonzero" d="M134 106.42v.631c0 .68-.314 1.327-.861 1.784a2.78 2.78 0 0 1-2.016.617c-5.386-.47-10.747-1.344-16.151-1.192-9.964.28-20.01 4.022-29.654 1.71-2.72-.652-5.41-1.785-8.207-1.541-2.511.218-4.746 1.522-7.178 2.134-7.397 1.864-14.93-2.848-22.598-2.658-5.055.127-9.895 2.387-14.944 2.136-2.926-.144-5.713-1.127-8.568-1.733-7.107-1.508-14.426-.665-21.75-.142A2.033 2.033 0 0 1 .62 107.7 1.702 1.702 0 0 1 0 106.406v-.541c0-.977.862-1.769 1.926-1.769L131.375 104a2.752 2.752 0 0 1 1.858.71c.493.454.768 1.069.767 1.71z"/>
        <path fill="#DA9F5A" fill-rule="nonzero" d="M134 106.42v.631c0 .68-.314 1.327-.861 1.784a2.78 2.78 0 0 1-2.016.617c-5.386-.47-10.747-1.344-16.151-1.192-9.964.28-20.01 4.022-29.654 1.71-2.72-.652-5.41-1.785-8.207-1.541-2.511.218-4.746 1.522-7.178 2.134-7.397 1.864-14.93-2.848-22.598-2.658-5.055.127-9.895 2.387-14.944 2.136-2.926-.144-5.713-1.127-8.568-1.733-7.107-1.508-14.426-.665-21.75-.142A2.033 2.033 0 0 1 .62 107.7 1.702 1.702 0 0 1 0 106.406v-.541c0-.977.862-1.769 1.926-1.769L131.375 104a2.752 2.752 0 0 1 1.858.71c.493.454.768 1.069.767 1.71z" opacity=".1"/>
        <path fill="#305D1B" fill-rule="nonzero" d="M134 104.417v.63c0 .089-.005.176-.015.263-.153 1.314-1.428 2.27-2.862 2.146-5.386-.47-10.747-1.344-16.151-1.192-9.964.28-20.01 4.019-29.654 1.708-2.72-.651-5.41-1.783-8.207-1.54-2.511.219-4.745 1.521-7.178 2.133-7.397 1.858-14.93-2.85-22.598-2.66-5.055.126-9.895 2.384-14.944 2.134-2.926-.145-5.713-1.126-8.568-1.732-7.106-1.505-14.426-.663-21.75-.141-.986.07-1.87-.558-2.044-1.451a1.636 1.636 0 0 1-.029-.31v-.541c0-.976.862-1.767 1.926-1.767l32.445-.024 66.286-.05 30.718-.023a2.753 2.753 0 0 1 1.858.71c.493.453.768 1.067.767 1.707z"/>
        <path fill="#000" fill-rule="nonzero" d="M102 102.496c0 .387-.601.758-1.71 1.107C95.854 104.996 83.309 106 68.5 106c-14.568 0-26.963-.972-31.57-2.332-1.24-.366-1.93-.76-1.93-1.172 0-.144.083-.286.245-.426l66.423-.07c.219.163.332.32.332.496z" opacity=".1"/>
        <g fill-rule="nonzero" opacity=".5" transform="translate(76)">
            <rect width="55" height="17" fill="#A3C294" rx="2.941"/>
            <path fill="#B2D99F" d="M6.704 3.653h12.724v2.95H6.704z"/>
            <path fill="#FEFFFD" d="M6.704 8.43h38.993v1.545H6.704zM6.704 11.802h15.597v1.545H6.704z" opacity=".3"/>
        </g>
        <g fill-rule="nonzero" opacity=".5" transform="translate(6 14)">
            <rect width="55" height="16.861" y=".071" fill="#36334A" rx="2.941"/>
            <path fill="#36334A" d="M6.704 3.694h12.724V6.62H6.704zM6.704 8.432h38.993v1.533H6.704zM6.704 11.776h15.597v1.533H6.704z"/>
            <rect width="55" height="16.861" y=".071" fill="#478529" rx="2.941"/>
            <path fill="#64B23E" d="M6.704 3.694h12.724V6.62H6.704z"/>
            <path fill="#D3F0C5" d="M6.704 8.432h38.993v1.533H6.704zM6.704 11.776h15.597v1.533H6.704z" opacity=".3"/>
        </g>
        <rect width="1" height="12" x="92" y="29" fill="#3F3D56" fill-rule="nonzero" rx=".354"/>
        <rect width="1" height="4" x="45" y="20" fill="#3F3D56" fill-rule="nonzero" rx=".232"/>
        <rect width="1" height="6" x="45" y="28" fill="#3F3D56" fill-rule="nonzero" rx=".261"/>
        <rect width="1" height="6" x="45" y="37" fill="#3F3D56" fill-rule="nonzero" rx=".249"/>
        <rect width="48" height="96" x="45" y="8" fill="#3F3D56" fill-rule="nonzero" rx="5.515"/>
        <rect width="6" height="1" x="64" y="10" fill="#E6E8EC" fill-rule="nonzero" rx=".393"/>
        <circle cx="72.5" cy="10.5" r="1" fill="#E6E8EC" fill-rule="nonzero"/>
        <path fill="#FFF" fill-rule="nonzero" d="M90 13.752v83.497c0 2.072-1.664 3.751-3.715 3.751h-33.57c-2.051 0-3.714-1.679-3.715-3.75V13.751C49 11.68 50.663 10 52.715 10h5.024v.658c0 1.706 1.37 3.09 3.059 3.09h17.079c1.687-.004 3.052-1.386 3.052-3.09v-.651h5.356c2.049 0 3.711 1.675 3.715 3.745z"/>
        <path fill="#3F3D56" fill-rule="nonzero" d="M49 17h4v1h-4zM49 18h4v1h-4zM49 19h4v1h-4z"/>
        <path fill="#3F3D56" fill-rule="nonzero" d="M49 17h4v1h-4zM49 18h4v1h-4zM49 19h4v1h-4zM87.137 18.881H87l-.052-.043c.171-.205.265-.464.265-.731A1.11 1.11 0 0 0 86.101 17 1.11 1.11 0 0 0 85 18.119a1.11 1.11 0 0 0 1.113 1.106c.265-.002.522-.096.726-.266l.05.043v.138l.855.86.256-.257-.863-.862zm-1.024 0a.77.77 0 0 1-.714-.476.778.778 0 0 1 .165-.845.768.768 0 0 1 .84-.17c.289.12.477.403.477.717a.772.772 0 0 1-.768.774z"/>
        <path fill="#478529" fill-rule="nonzero" d="M49 27h13v3H49z"/>
        <path fill="#468428" fill-rule="nonzero" d="M49 32h39v1H49zM48 36h16v1H48z" opacity=".3"/>
        <path fill="#478529" fill-rule="nonzero" d="M49 61h13v3H49z"/>
        <path fill="#468428" fill-rule="nonzero" d="M49 66h39v1H49zM48 70h16v1H48z" opacity=".3"/>
        <path fill="#478529" fill-rule="nonzero" d="M49 78h13v3H49z"/>
        <path fill="#468428" fill-rule="nonzero" d="M49 83h39v1H49zM48 86h16v1H48z" opacity=".3"/>
        <circle cx="81.5" cy="93.5" r="4.5" fill="#478529" fill-rule="nonzero"/>
        <path stroke="#FFF" stroke-linecap="round" stroke-width=".5" d="M84 93.533v2.293a.174.174 0 0 1-.174.174h-4.652a.174.174 0 0 1-.174-.174v-3.652c0-.096.078-.174.174-.174h3.237M80 93h4M80 94h4M80 94h4"/>
        <path stroke="#F0F" stroke-width=".5" d="M83 92v1M84 92h-1"/>
        <path stroke="#FFF" stroke-linecap="round" stroke-width=".5" d="M83 92v1M84 92h-1"/>
        <path stroke="#3F3D56" stroke-width=".618" d="M121.962 103c.46-.772-.061-1.72-.658-2.407-.596-.688-1.32-1.401-1.304-2.283.023-1.26 1.487-2.005 2.656-2.674a12.739 12.739 0 0 0 2.385-1.753c.3-.257.548-.56.732-.897.242-.493.236-1.054.22-1.593-.051-1.8-.149-3.597-.292-5.393"/>
        <path fill="#DA9F5A" fill-rule="nonzero" d="M127.997 85.912a2 2 0 0 0-1-1.643l-.449.889.014-1.076a2 2 0 1 0 1.436 1.83h-.001zM123.777 98.917a2 2 0 1 1 .097-1.614l-1.252 1.018 1.378-.318a2 2 0 0 1-.223.914zM123.117 95.995a1.98 1.98 0 0 1-2.091-1.67 1.993 1.993 0 0 1 1.462-2.25l-.011.823.449-.896a1.967 1.967 0 0 1 1.428.518 2 2 0 0 1 .643 1.385c.012.23-.017.461-.084.682a1.98 1.98 0 0 1-1.796 1.408zM128.08 91.999a2.006 2.006 0 0 1-1.936-1.255 1.996 1.996 0 0 1 .531-2.24 2.011 2.011 0 0 1 2.295-.258l-.355.971.73-.7a1.997 1.997 0 0 1 .602 1.935 2.005 2.005 0 0 1-1.867 1.547z"/>
        <path fill="#000" fill-rule="nonzero" d="M127.77 86.413c-.47.052-.926.204-1.397.234-.47.03-.988-.086-1.286-.464-.16-.204-.24-.462-.376-.685A1.47 1.47 0 0 0 124.2 85a2.152 2.152 0 0 0 .24 2.207 1.993 1.993 0 0 0 2.026.744A2.061 2.061 0 0 0 128 86.395a3.02 3.02 0 0 0-.23.018zM128.125 91.997a2 2 0 0 1-1.785-.93 2.165 2.165 0 0 1-.144-2.067c.161.112.3.256.408.423.144.226.232.488.401.695.317.385.856.511 1.345.489.49-.023.962-.168 1.445-.215.068 0 .136-.01.205-.012-.206.913-.972 1.574-1.875 1.617zM123.139 95.997a2.01 2.01 0 0 1-1.786-.925 2.202 2.202 0 0 1-.172-2.072c.17.115.318.262.437.432.158.234.257.504.443.72.345.398.924.54 1.444.527.52-.012.993-.14 1.495-.182-.253.861-.999 1.463-1.861 1.5zM124 98.74a2.076 2.076 0 0 1-2.763 1.074c-1.054-.48-1.526-1.74-1.054-2.814.173.115.328.256.46.418.2.246.33.527.56.76.428.428 1.119.607 1.735.62.355.003.71-.017 1.062-.058z" opacity=".1"/>
        <path fill="#656380" fill-rule="nonzero" d="M119 101.858s1.613-.049 2.099-.39c.486-.341 2.474-.747 2.6-.2.124.546 2.422 2.723.603 2.732-1.82.008-4.23-.278-4.715-.574-.487-.295-.587-1.568-.587-1.568z"/>
        <path fill="#000" fill-rule="nonzero" d="M124.34 103.82c-1.823.013-4.234-.26-4.72-.533-.37-.207-.517-.946-.566-1.287H119s.102 1.192.583 1.466c.48.275 2.898.543 4.72.534.526 0 .707-.175.697-.428-.069.15-.268.244-.66.248z" opacity=".2"/>
        <path fill="#305D1B" fill-rule="nonzero" d="M88 45.678V57.33C88 58.805 86.837 60 85.403 60H48V43h37.403c.69 0 1.352.282 1.84.785.487.502.76 1.183.757 1.893z"/>
        <rect width="55" height="17" x="28" y="40" fill="#F2F2F2" fill-rule="nonzero" rx="2.941"/>
        <rect width="55" height="17" x="28" y="40" fill="#F2F2F2" fill-rule="nonzero" rx="2.941"/>
        <path fill="#478529" fill-rule="nonzero" d="M36 44h13v3H36z"/>
        <path fill="#468428" fill-rule="nonzero" d="M36 49h39v1H36zM36 52h16v1H36z" opacity=".3"/>
        <circle cx="12.5" cy="33.5" r="4.5" fill="#E8662A" fill-rule="nonzero"/>
        <path fill="#52563D" fill-rule="nonzero" d="M10.26 72.149c.528 3.552-.117 7.174-1.121 10.63-.188.643-.39 1.292-.741 1.87-.351.577-.84 1.074-1.253 1.617-.86 1.134-1.364 2.47-1.835 3.792-1.3 3.66-2.392 7.384-3.27 11.157a.733.733 0 0 0 0 .476c.124.275.503.31.814.309l4.02-.02c.144-.264-.121-.55-.286-.802-.573-.853-.023-1.962.483-2.855a29.94 29.94 0 0 0 2.834-6.86c.275-1.005.499-2.033.946-2.98.54-1.15 1.387-2.14 2.075-3.215.8-1.25 1.383-2.607 1.962-3.97.808-1.89 1.623-3.804 1.942-5.823.299-1.896.151-3.828-.043-5.737a.353.353 0 0 0-.11-.313.39.39 0 0 0-.329-.098l-5.395-.266c-1.112-.055-1.376-.288-1.207.757.118.78.396 1.54.513 2.331z"/>
        <path fill="#52563D" fill-rule="nonzero" d="M10.26 72.149c.528 3.552-.117 7.174-1.121 10.63-.188.643-.39 1.292-.741 1.87-.351.577-.84 1.074-1.253 1.617-.86 1.134-1.364 2.47-1.835 3.792-1.3 3.66-2.392 7.384-3.27 11.157a.733.733 0 0 0 0 .476c.124.275.503.31.814.309l4.02-.02c.144-.264-.121-.55-.286-.802-.573-.853-.023-1.962.483-2.855a29.94 29.94 0 0 0 2.834-6.86c.275-1.005.499-2.033.946-2.98.54-1.15 1.387-2.14 2.075-3.215.8-1.25 1.383-2.607 1.962-3.97.808-1.89 1.623-3.804 1.942-5.823.299-1.896.151-3.828-.043-5.737a.353.353 0 0 0-.11-.313.39.39 0 0 0-.329-.098l-5.395-.266c-1.112-.055-1.376-.288-1.207.757.118.78.396 1.54.513 2.331z" opacity=".1"/>
        <path fill="#52563D" fill-rule="nonzero" d="M10.86 63.384c-1.046 1.515-2.142 3.258-1.795 5.07.264 1.377 1.305 2.444 2.287 3.442 3.926 3.973 7.787 8.386 9.123 13.831.344 1.407.51 2.85.807 4.267.538 2.575 1.503 5.036 2.459 7.482L26.298 104A3.874 3.874 0 0 0 30 101.52c-.336-.026-.775-.354-.971-.63-1.093-1.523-1.317-3.483-1.597-5.342-.31-2.054-.724-4.091-1.14-6.127l-1.83-9.006c-.212-1.04-.423-2.08-.7-3.103-1.068-3.969-3.092-7.709-3.405-11.813-.046-.603-.075-1.265-.48-1.712-.427-.472-1.126-.55-1.759-.588-2.558-.17-4.766-.423-7.259.184z"/>
        <path fill="#F2F2F2" fill-rule="nonzero" d="M4.243 101.738a4.208 4.208 0 0 0-.884-.115 1.832 1.832 0 0 0-1.444.796 3.635 3.635 0 0 0-.388.86l-.385 1.115c-.113.327-.224.704-.055 1.004.125.188.306.331.517.409.932.418 1.982.441 2.998.541.986.098 1.964.273 2.937.458.336.063.67.127 1.01.162.758.077 1.522 0 2.281-.07l.783-.075c.262-.011.521-.06.77-.143a.974.974 0 0 0 .569-.515c.193-.483-.222-1.055-.73-1.147-.205-.041-.418-.023-.627-.05a2.947 2.947 0 0 1-.688-.208c-1.002-.397-2.014-.798-2.895-1.423-.244-.174-.5-.416-.473-.717a1.47 1.47 0 0 1 .127-.372c.12-.307.123-.648.011-.959-.048-.131-.142-.27-.274-.286-.375-.046-.33.506-.385.716-.076.287-.212.313-.48.287-.766-.083-1.534-.122-2.295-.268zM26.015 104.329c.006.474.19.934.52 1.305.102.111.228.202.371.266.214.079.445.112.675.096a6.044 6.044 0 0 0 1.893-.34 5.84 5.84 0 0 1 .655-.22 8.19 8.19 0 0 1 .85-.11c1.128-.145 2.117-.737 3.207-1.037.325-.072.644-.166.954-.28.43-.18.78-.486 1.122-.78.201-.16.375-.345.515-.55.2-.333.213-.729.22-1.105a.285.285 0 0 0-.032-.171.284.284 0 0 0-.123-.087c-.33-.145-.723-.073-1.09-.015-1.325.21-2.682.17-4.027.132-.262.032-.516-.097-.619-.315l-.511-.728c-.146-.21-.378-.449-.642-.377-.211.057-.297.288-.29.486.01.198.077.395.035.588a.823.823 0 0 1-.436.505 3.002 3.002 0 0 1-.682.233c-.752.19-1.627.405-2.21.898-.42.355-.381 1.138-.355 1.606z"/>
        <path fill="#FBBEBE" fill-rule="nonzero" d="M24.863 50.332c.272-.24.505-.532.689-.865a3.95 3.95 0 0 0 .294-1.196l.198-1.444c.11-.797.238-1.64.699-2.247.46-.608 1.377-.825 1.845-.225.204.261.285.62.335.967.292 2.103-.256 4.244-1.49 5.826-.567.716-1.262 1.286-1.861 1.963-.522.582-.975 1.25-1.457 1.884A21.315 21.315 0 0 1 20.146 59c.018-1.083.137-2.246 0-3.322-.102-.777-.378-1.197.274-1.705 1.513-1.189 3.04-2.263 4.443-3.64zM12.006 40.138c-.056.727-.374 1.471-1.006 1.89A81.076 81.076 0 0 1 16.3 44c-.336-.308-.438-.78-.454-1.222-.045-1.158.376-2.297.992-3.295a.775.775 0 0 0 .162-.435c-.02-.322-.423-.471-.753-.546-1.128-.26-2.28-.42-3.439-.475-.496-.015-1.084-.164-.971.436.106.56.214 1.108.17 1.675z"/>
        <circle cx="15" cy="37" r="4" fill="#FBBEBE" fill-rule="nonzero"/>
        <path fill="#CE8400" fill-rule="nonzero" d="M19.098 47.376c-.144-.3-.32-.586-.525-.852-.75-1.043-1.52-2.084-2.481-2.947a15.433 15.433 0 0 0-2.356-1.675c-.452-.3-.95-.531-1.474-.685a5.947 5.947 0 0 0-.947-.125l-1.074-.085a.907.907 0 0 0-.283.009c-.291.07-.424.422-.362.705.062.284.283.514.478.729.048 2.122-.926 4.215-1.058 6.334-.23 3.699 2.105 7.152 2.292 10.86.02.168.001.338-.054.498-.03.077-.078.146-.113.222-.11.233-.106.497-.126.753a3.777 3.777 0 0 1-1.164 2.414c.175.21.4.377.656.485.452.19.99.207 1.47.34 1.251.353 2.533.71 3.833.634.162-.34.262-.705.296-1.078.184-.111.396.126.424.334.029.208-.012.45.142.601.154.151.35.128.537.104.794-.097 1.557-.356 2.335-.53.778-.174 1.61-.257 2.367-.008.153-.188.088-.466-.037-.671-.124-.206-.301-.386-.372-.615a1.339 1.339 0 0 1-.045-.404c0-1.172.249-2.355.013-3.504-.07-.337-.18-.666-.25-1.005-.142-.656-.121-1.332-.103-2.002.019-.67-.065-1.395-.079-2.074 0-.281-.02-.562-.057-.84-.048-.292-.141-.577-.167-.871-.076-.748.235-1.49.189-2.241-.078-1.14-1.446-1.76-1.905-2.81z"/>
        <path fill="#FBBEBE" fill-rule="nonzero" d="M9.618 47.034c-1.008 2.537-1.5 5.227-1.993 7.899l-1.14 6.274c-.323 1.774-.647 3.558-.635 5.357 0 .505.035 1.02-.105 1.507-.182.64-.635 1.174-.978 1.756a5.52 5.52 0 0 0-.655 3.907c.116.56.435 1.196 1.035 1.261.493.052.918-.32 1.206-.703.66-.88.988-1.941 1.282-2.987A64.405 64.405 0 0 0 9.61 60.894c.035-.445.101-.887.198-1.324.126-.45.287-.89.481-1.318l1.309-3.074c1.007-2.367 2.02-4.746 3.402-6.936-1.367-.373-2.79-.81-4.157-1.18-.394-.11-.817-.044-1.225-.028z"/>
        <path fill="#CE8400" fill-rule="nonzero" d="M12.185 49.988c-.886-.195-1.804-.134-2.71-.157a.576.576 0 0 1-.364-.097c-.183-.16-.105-.46-.013-.688l.438-1.077c.072-.222.192-.426.352-.595.223-.202.537-.252.832-.288.963-.113 1.953-.15 2.886.115s1.81.868 2.228 1.76c.174.372.254.84.023 1.178-.343.502-1.112 1.063-1.686.789-.688-.329-1.215-.769-1.986-.94z"/>
        <path fill="#E8662A" fill-rule="nonzero" d="M16.306 29.8a4.452 4.452 0 0 0-2.356.642c-1.355-1.215-3.296-1.645-5.08-1.126-.26-1.4-1.586-2.394-3.085-2.311-1.5.082-2.695 1.215-2.78 2.634-.086 1.42.966 2.673 2.446 2.917-.598 1.7-.167 3.574 1.123 4.885 1.291 1.311 3.236 1.85 5.07 1.406 1.835-.445 3.266-1.802 3.732-3.54.305.06.616.09.927.09 2.041 0 3.697-1.254 3.697-2.799S18.344 29.8 16.306 29.8z"/>
        <path fill="#000" fill-rule="nonzero" d="M17.413 34.32a3.107 3.107 0 0 1-.817-.108A6.774 6.774 0 0 1 16 35.905c.252.062.508.094.765.095 1.68 0 3.058-1.316 3.235-3a3.222 3.222 0 0 1-2.587 1.32zM11.913 37.612a5.088 5.088 0 0 1-4.049-1.993 4.808 4.808 0 0 1-.765-4.356c-1.376-.236-2.38-1.4-2.38-2.76 0-.17.016-.337.047-.503a2.75 2.75 0 0 0-.615 2.8 2.857 2.857 0 0 0 2.23 1.865c-.808 2.582.678 5.314 3.325 6.114 2.647.8 5.46-.634 6.294-3.208a5.07 5.07 0 0 1-4.087 2.041z" opacity=".1"/>
    </g>
</svg>
