<svg xmlns="http://www.w3.org/2000/svg" width="355" height="163" viewBox="0 0 355 163">
    <path fill="#FFF" fill-rule="evenodd" stroke="#D0D1D0" stroke-width="3" d="M330.359 91.56C343.627 96.865 353 109.838 353 125c0 19.882-16.118 36-36 36-12.852 0-24.13-6.734-30.5-16.866C280.13 154.266 268.852 161 256 161c-12.204 0-22.99-6.073-29.5-15.36-6.51 9.287-17.296 15.36-29.5 15.36-12.522 0-23.55-6.393-30-16.093-6.45 9.7-17.478 16.093-30 16.093-11.897 0-22.445-5.77-29-14.665C101.445 155.229 90.897 161 79 161c-9.59 0-18.305-3.75-24.757-9.864A35.849 35.849 0 0 1 38 155c-19.882 0-36-16.118-36-36 0-16.954 11.72-31.17 27.5-34.99A36.243 36.243 0 0 1 29 78c0-19.882 16.118-36 36-36 1.367 0 2.716.076 4.043.224C69.969 23.167 85.713 8 105 8a35.834 35.834 0 0 1 20.5 6.403A35.834 35.834 0 0 1 146 8a35.832 35.832 0 0 1 19.442 5.696C172.024 6.508 181.485 2 192 2a35.832 35.832 0 0 1 19 5.416A35.832 35.832 0 0 1 230 2c8.505 0 16.322 2.95 22.482 7.882A35.958 35.958 0 0 1 264 8c19.251 0 34.973 15.111 35.952 34.12C318.453 43.62 333 59.111 333 78c0 4.797-.938 9.375-2.641 13.56z"/>
</svg>
