<svg xmlns="http://www.w3.org/2000/svg" width="360" height="106" viewBox="0 0 360 106">
    <path fill="#F4F4F4" fill-rule="evenodd" d="M127.199-92.926C143.196-103.106 162.163-109 182.5-109c31.88 0 60.395 14.484 79.38 37.26C274.165-77.674 287.945-81 302.5-81c51.639 0 93.5 41.861 93.5 93.5S354.139 106 302.5 106c-24.199 0-46.25-9.193-62.853-24.277C223.271 92.641 203.625 99 182.5 99c-34.825 0-65.633-17.283-84.393-43.779C86.081 60.853 72.657 64 58.5 64 6.861 64-35 22.139-35-29.5S6.861-123 58.5-123c27.16 0 51.616 11.581 68.699 30.074z"/>
</svg>
